<svg width="800" height="600" viewBox="0 0 800 600" xmlns="http://www.w3.org/2000/svg">
  <defs>
    <linearGradient id="bg6" x1="0%" y1="0%" x2="100%" y2="100%">
      <stop offset="0%" style="stop-color:#667eea;stop-opacity:1" />
      <stop offset="100%" style="stop-color:#764ba2;stop-opacity:1" />
    </linearGradient>
    <linearGradient id="whiteboard" x1="0%" y1="0%" x2="100%" y2="100%">
      <stop offset="0%" style="stop-color:#ffffff;stop-opacity:1" />
      <stop offset="100%" style="stop-color:#f8f9fa;stop-opacity:1" />
    </linearGradient>
  </defs>
  
  <!-- Background -->
  <rect width="800" height="600" fill="url(#bg6)"/>
  
  <!-- Conference Table -->
  <ellipse cx="400" cy="450" rx="200" ry="80" fill="#8b4513" opacity="0.8"/>
  <ellipse cx="400" cy="440" rx="200" ry="80" fill="#a0522d"/>
  
  <!-- Whiteboard -->
  <rect x="150" y="80" width="500" height="300" rx="10" fill="url(#whiteboard)" stroke="#e0e0e0" stroke-width="2"/>
  
  <!-- Whiteboard Frame -->
  <rect x="140" y="70" width="520" height="320" rx="15" fill="#2c3e50"/>
  <rect x="150" y="80" width="500" height="300" rx="10" fill="url(#whiteboard)"/>
  
  <!-- Strategy Flowchart -->
  <g transform="translate(200, 120)">
    <!-- Analysis Box -->
    <rect x="0" y="0" width="80" height="40" rx="5" fill="#e3f2fd" stroke="#2196f3" stroke-width="2"/>
    <text x="40" y="16" font-family="Arial, sans-serif" font-size="10" fill="#1976d2" text-anchor="middle" font-weight="bold">ANALYSIS</text>
    <text x="40" y="28" font-family="Arial, sans-serif" font-size="8" fill="#1976d2" text-anchor="middle">Current State</text>
    
    <!-- Arrow 1 -->
    <path d="M85,20 L110,20" fill="none" stroke="#2c3e50" stroke-width="2" marker-end="url(#arrowhead)"/>
    
    <!-- Strategy Box -->
    <rect x="115" y="0" width="80" height="40" rx="5" fill="#fff3e0" stroke="#ff9800" stroke-width="2"/>
    <text x="155" y="16" font-family="Arial, sans-serif" font-size="10" fill="#f57c00" text-anchor="middle" font-weight="bold">STRATEGY</text>
    <text x="155" y="28" font-family="Arial, sans-serif" font-size="8" fill="#f57c00" text-anchor="middle">Digital Plan</text>
    
    <!-- Arrow 2 -->
    <path d="M200,20 L225,20" fill="none" stroke="#2c3e50" stroke-width="2" marker-end="url(#arrowhead)"/>
    
    <!-- Implementation Box -->
    <rect x="230" y="0" width="80" height="40" rx="5" fill="#e8f5e8" stroke="#4caf50" stroke-width="2"/>
    <text x="270" y="16" font-family="Arial, sans-serif" font-size="10" fill="#2e7d32" text-anchor="middle" font-weight="bold">IMPLEMENT</text>
    <text x="270" y="28" font-family="Arial, sans-serif" font-size="8" fill="#2e7d32" text-anchor="middle">Execute Plan</text>
    
    <!-- Arrow down -->
    <path d="M270,45 L270,70" fill="none" stroke="#2c3e50" stroke-width="2" marker-end="url(#arrowhead)"/>
    
    <!-- Monitor Box -->
    <rect x="230" y="75" width="80" height="40" rx="5" fill="#fce4ec" stroke="#e91e63" stroke-width="2"/>
    <text x="270" y="91" font-family="Arial, sans-serif" font-size="10" fill="#c2185b" text-anchor="middle" font-weight="bold">MONITOR</text>
    <text x="270" y="103" font-family="Arial, sans-serif" font-size="8" fill="#c2185b" text-anchor="middle">Track Results</text>
    
    <!-- Arrow left -->
    <path d="M225,95 L200,95" fill="none" stroke="#2c3e50" stroke-width="2" marker-end="url(#arrowhead)"/>
    
    <!-- Optimize Box -->
    <rect x="115" y="75" width="80" height="40" rx="5" fill="#f3e5f5" stroke="#9c27b0" stroke-width="2"/>
    <text x="155" y="91" font-family="Arial, sans-serif" font-size="10" fill="#7b1fa2" text-anchor="middle" font-weight="bold">OPTIMIZE</text>
    <text x="155" y="103" font-family="Arial, sans-serif" font-size="8" fill="#7b1fa2" text-anchor="middle">Improve</text>
    
    <!-- Arrow left -->
    <path d="M110,95 L85,95" fill="none" stroke="#2c3e50" stroke-width="2" marker-end="url(#arrowhead)"/>
    
    <!-- Feedback Arrow -->
    <path d="M40,45 L40,70" fill="none" stroke="#2c3e50" stroke-width="2" marker-end="url(#arrowhead)"/>
  </g>
  
  <!-- Arrow marker definition -->
  <defs>
    <marker id="arrowhead" markerWidth="10" markerHeight="7" refX="9" refY="3.5" orient="auto">
      <polygon points="0 0, 10 3.5, 0 7" fill="#2c3e50"/>
    </marker>
  </defs>
  
  <!-- Analytics Charts -->
  <g transform="translate(180, 260)">
    <rect x="0" y="0" width="100" height="60" fill="#ffffff" stroke="#e0e0e0" stroke-width="1"/>
    <text x="50" y="12" font-family="Arial, sans-serif" font-size="8" fill="#2c3e50" text-anchor="middle">ROI Analysis</text>
    
    <!-- Bar Chart -->
    <rect x="10" y="45" width="8" height="10" fill="#2196f3"/>
    <rect x="25" y="35" width="8" height="20" fill="#2196f3"/>
    <rect x="40" y="25" width="8" height="30" fill="#4caf50"/>
    <rect x="55" y="20" width="8" height="35" fill="#4caf50"/>
    <rect x="70" y="15" width="8" height="40" fill="#4caf50"/>
  </g>
  
  <g transform="translate(320, 260)">
    <rect x="0" y="0" width="100" height="60" fill="#ffffff" stroke="#e0e0e0" stroke-width="1"/>
    <text x="50" y="12" font-family="Arial, sans-serif" font-size="8" fill="#2c3e50" text-anchor="middle">Traffic Growth</text>
    
    <!-- Line Chart -->
    <polyline points="10,50 25,45 40,35 55,30 70,20 85,15" 
              fill="none" stroke="#ff9800" stroke-width="2"/>
    <!-- Data points -->
    <circle cx="10" cy="50" r="2" fill="#ff9800"/>
    <circle cx="25" cy="45" r="2" fill="#ff9800"/>
    <circle cx="40" cy="35" r="2" fill="#ff9800"/>
    <circle cx="55" cy="30" r="2" fill="#ff9800"/>
    <circle cx="70" cy="20" r="2" fill="#ff9800"/>
    <circle cx="85" cy="15" r="2" fill="#ff9800"/>
  </g>
  
  <!-- Technology Stack Icons -->
  <g transform="translate(170, 340)">
    <text x="0" y="0" font-family="Arial, sans-serif" font-size="10" fill="#2c3e50" font-weight="bold">Technology Stack:</text>
    
    <!-- React -->
    <circle cx="20" cy="20" r="10" fill="#61dafb"/>
    <text x="20" y="24" font-family="Arial, sans-serif" font-size="6" fill="#2c3e50" text-anchor="middle">React</text>
    
    <!-- Node.js -->
    <circle cx="60" cy="20" r="10" fill="#68a063"/>
    <text x="60" y="24" font-family="Arial, sans-serif" font-size="6" fill="white" text-anchor="middle">Node</text>
    
    <!-- Database -->
    <circle cx="100" cy="20" r="10" fill="#336791"/>
    <text x="100" y="24" font-family="Arial, sans-serif" font-size="6" fill="white" text-anchor="middle">DB</text>
    
    <!-- Cloud -->
    <ellipse cx="140" cy="20" rx="12" ry="8" fill="#ff9900"/>
    <text x="140" y="24" font-family="Arial, sans-serif" font-size="6" fill="white" text-anchor="middle">Cloud</text>
  </g>
  
  <!-- Digital Transformation Timeline -->
  <g transform="translate(320, 340)">
    <text x="0" y="0" font-family="Arial, sans-serif" font-size="10" fill="#2c3e50" font-weight="bold">Transformation Timeline:</text>
    
    <!-- Timeline line -->
    <line x1="0" y1="25" x2="180" y2="25" stroke="#667eea" stroke-width="2"/>
    
    <!-- Phase 1 -->
    <circle cx="20" cy="25" r="4" fill="#667eea"/>
    <text x="20" y="40" font-family="Arial, sans-serif" font-size="7" fill="#2c3e50" text-anchor="middle">Phase 1</text>
    <text x="20" y="50" font-family="Arial, sans-serif" font-size="6" fill="#5a6c7d" text-anchor="middle">Discovery</text>
    
    <!-- Phase 2 -->
    <circle cx="70" cy="25" r="4" fill="#667eea"/>
    <text x="70" y="40" font-family="Arial, sans-serif" font-size="7" fill="#2c3e50" text-anchor="middle">Phase 2</text>
    <text x="70" y="50" font-family="Arial, sans-serif" font-size="6" fill="#5a6c7d" text-anchor="middle">Design</text>
    
    <!-- Phase 3 -->
    <circle cx="120" cy="25" r="4" fill="#667eea"/>
    <text x="120" y="40" font-family="Arial, sans-serif" font-size="7" fill="#2c3e50" text-anchor="middle">Phase 3</text>
    <text x="120" y="50" font-family="Arial, sans-serif" font-size="6" fill="#5a6c7d" text-anchor="middle">Deploy</text>
    
    <!-- Phase 4 -->
    <circle cx="170" cy="25" r="4" fill="#4caf50"/>
    <text x="170" y="40" font-family="Arial, sans-serif" font-size="7" fill="#2c3e50" text-anchor="middle">Phase 4</text>
    <text x="170" y="50" font-family="Arial, sans-serif" font-size="6" fill="#5a6c7d" text-anchor="middle">Optimize</text>
  </g>
  
  <!-- People Around Table -->
  <!-- Person 1 (Consultant) -->
  <g transform="translate(300, 380)">
    <circle cx="0" cy="0" r="15" fill="#f4c2a1"/>
    <rect x="-10" y="10" width="20" height="25" fill="#2c3e50"/>
    <rect x="-15" y="20" width="30" height="20" fill="#667eea"/>
  </g>
  
  <!-- Person 2 (Client) -->
  <g transform="translate(500, 380)">
    <circle cx="0" cy="0" r="15" fill="#f4c2a1"/>
    <rect x="-10" y="10" width="20" height="25" fill="#2c3e50"/>
    <rect x="-15" y="20" width="30" height="20" fill="#34495e"/>
  </g>
  
  <!-- Laptop on Table -->
  <g transform="translate(380, 420)">
    <rect x="0" y="0" width="40" height="25" rx="2" fill="#2c3e50"/>
    <rect x="2" y="2" width="36" height="21" rx="1" fill="#ecf0f1"/>
    <!-- Screen content -->
    <rect x="4" y="4" width="32" height="8" fill="#667eea"/>
    <rect x="4" y="14" width="15" height="2" fill="#95a5a6"/>
    <rect x="4" y="18" width="20" height="2" fill="#95a5a6"/>
  </g>
  
  <!-- Documents on Table -->
  <g transform="translate(250, 430)">
    <rect x="0" y="0" width="30" height="20" fill="#ffffff" stroke="#bdc3c7" stroke-width="1"/>
    <rect x="5" y="5" width="20" height="1" fill="#2c3e50"/>
    <rect x="5" y="8" width="15" height="1" fill="#95a5a6"/>
    <rect x="5" y="11" width="18" height="1" fill="#95a5a6"/>
    <rect x="5" y="14" width="12" height="1" fill="#95a5a6"/>
  </g>
  
  <!-- Coffee Cups -->
  <g transform="translate(480, 430)">
    <ellipse cx="0" cy="5" rx="5" ry="3" fill="#8b4513"/>
    <rect x="-4" y="0" width="8" height="8" fill="#ffffff"/>
    <ellipse cx="0" cy="0" rx="4" ry="2" fill="#6f4e37"/>
    <!-- Steam -->
    <path d="M-2,0 Q-2,-5 0,-5 Q2,-5 2,-10" fill="none" stroke="#95a5a6" stroke-width="0.5" opacity="0.7"/>
    <path d="M2,0 Q2,-5 0,-5 Q-2,-5 -2,-10" fill="none" stroke="#95a5a6" stroke-width="0.5" opacity="0.7"/>
  </g>
  
  <!-- Title Text -->
  <text x="400" y="570" font-family="Arial, sans-serif" font-size="24" font-weight="bold" fill="white" text-anchor="middle">Digital Consulting</text>
</svg>